PathFileType	4	(X/Y/Z)	 3.0Hz3min.trc
DataRate	CameraRate	NumFrames	NumMarkers	Units	OrigDataRate	OrigDataStartFrame	OrigNumFrames
200	200	9	39	m	200	126	1000
Frame#	Time	C7			LSH			RSH			MAN			RASI			LASI			HIPR			HIPL			RPSI			LPSI			COX			RTHI1			RTHI2			RTHI3			RTHI4			RLKN			RMKN			RSHA1			RSHA2			RSHA3			RSHA4			RHEEL			RMET5			RMET1			RTOE			LTHI1			LTHI2			LTHI3			LTHI4			LLKN			LMKN			LSHA1			LSHA2			LSHA3			LSHA4			LHEEL			LMET5			LMET1			LTOE			
		X1	Y1	Z1	X2	Y2	Z2	X3	Y3	Z3	X4	Y4	Z4	X5	Y5	Z5	X6	Y6	Z6	X7	Y7	Z7	X8	Y8	Z8	X9	Y9	Z9	X10	Y10	Z10	X11	Y11	Z11	X12	Y12	Z12	X13	Y13	Z13	X14	Y14	Z14	X15	Y15	Z15	X16	Y16	Z16	X17	Y17	Z17	X18	Y18	Z18	X19	Y19	Z19	X20	Y20	Z20	X21	Y21	Z21	X22	Y22	Z22	X23	Y23	Z23	X24	Y24	Z24	X25	Y25	Z25	X26	Y26	Z26	X27	Y27	Z27	X28	Y28	Z28	X29	Y29	Z29	X30	Y30	Z30	X31	Y31	Z31	X32	Y32	Z32	X33	Y33	Z33	X34	Y34	Z34	X35	Y35	Z35	X36	Y36	Z36	X37	Y37	Z37	X38	Y38	Z38	X39	Y39	Z39	
126	0.6300	-0.269158	1.618482	-0.485798	-0.255476	1.583851	-0.726577	-0.190538	1.579971	-0.283221	-0.128246	1.543034	-0.511823	-0.142427	1.082227	-0.391800	-0.161843	1.088847	-0.630409	-0.209832	1.136225	-0.338042	-0.238257	1.151090	-0.666653	-0.327556	1.120215	-0.438375	-0.334059	1.128438	-0.545964	-0.339279	1.118279	-0.493627	-0.214536	0.858083	-0.300820	-0.198766	0.800890	-0.291190	-0.135242	0.814538	-0.298762	-0.143918	0.874220	-0.311076	-0.167954	0.511900	-0.311636	-0.158920	0.498670	-0.414274	-0.251455	0.392424	-0.262012	-0.272484	0.354630	-0.263971	-0.203885	0.370792	-0.285082	-0.219373	0.333598	-0.285007	-0.403601	0.073019	-0.320429	-0.226384	0.025735	-0.246599	-0.185579	0.041970	-0.343562	-0.149335	0.029547	-0.340592	-0.236443	0.836342	-0.703553	-0.219608	0.778375	-0.712474	-0.156575	0.791990	-0.720565	-0.165234	0.851173	-0.713798	-0.175903	0.515689	-0.684090	-0.146247	0.506703	-0.591956	-0.306819	0.372563	-0.703619	-0.321689	0.335250	-0.697914	-0.261837	0.317171	-0.705417	-0.254556	0.360473	-0.710597	-0.414276	0.069851	-0.635564	-0.248911	0.028978	-0.726337	-0.193226	0.040871	-0.641805	-0.153209	0.028531	-0.654114	
127	0.6350	-0.269312	1.619805	-0.485651	-0.255308	1.585451	-0.726481	-0.190608	1.581362	-0.283007	-0.128355	1.544615	-0.511598	-0.142377	1.083642	-0.391687	-0.161597	1.090612	-0.630358	-0.209809	1.137754	-0.337947	-0.237917	1.153436	-0.666661	-0.327481	1.121575	-0.438307	-0.333888	1.129840	-0.546038	-0.339188	1.119700	-0.493601	-0.214053	0.859339	-0.301097	-0.198507	0.802138	-0.291130	-0.134975	0.815805	-0.298907	-0.143698	0.875497	-0.311226	-0.167491	0.513183	-0.311769	-0.158658	0.500272	-0.414262	-0.251217	0.393744	-0.262004	-0.272270	0.355976	-0.263954	-0.203664	0.372089	-0.285069	-0.219159	0.334911	-0.284999	-0.403109	0.074424	-0.320303	-0.226268	0.025786	-0.246694	-0.185422	0.041945	-0.343574	-0.149232	0.029557	-0.340662	-0.235857	0.837783	-0.703892	-0.218911	0.779867	-0.712830	-0.155816	0.793542	-0.720285	-0.164587	0.852696	-0.713457	-0.175933	0.517182	-0.684195	-0.146270	0.508636	-0.592318	-0.307034	0.373788	-0.703922	-0.321832	0.336428	-0.698190	-0.261952	0.318452	-0.705661	-0.254734	0.361757	-0.710841	-0.413936	0.071119	-0.635963	-0.248734	0.028975	-0.726347	-0.193102	0.040870	-0.641868	-0.153123	0.028530	-0.654074	
128	0.6400	-0.269484	1.621454	-0.485519	-0.255101	1.587418	-0.726375	-0.190687	1.583126	-0.282819	-0.128446	1.546546	-0.511359	-0.142232	1.085468	-0.391555	-0.161201	1.092922	-0.630261	-0.209622	1.139724	-0.337879	-0.237414	1.156235	-0.666639	-0.327307	1.123243	-0.438230	-0.333632	1.131531	-0.546101	-0.339012	1.121431	-0.493560	-0.213607	0.860900	-0.301349	-0.198369	0.803721	-0.291027	-0.134804	0.817353	-0.298992	-0.143519	0.877056	-0.311325	-0.167444	0.514841	-0.311813	-0.158607	0.502002	-0.414143	-0.251246	0.395350	-0.261947	-0.272294	0.357592	-0.263891	-0.203679	0.373688	-0.284974	-0.219165	0.336515	-0.284904	-0.402574	0.076009	-0.320134	-0.226157	0.025846	-0.246796	-0.185283	0.041912	-0.343573	-0.149164	0.029566	-0.340719	-0.235344	0.839593	-0.704241	-0.218332	0.781712	-0.713218	-0.155172	0.795402	-0.720077	-0.163999	0.854524	-0.713166	-0.176537	0.518831	-0.684419	-0.146814	0.510680	-0.592732	-0.307578	0.375209	-0.704204	-0.322280	0.337794	-0.698461	-0.262372	0.319949	-0.705979	-0.255248	0.363273	-0.711143	-0.413618	0.072509	-0.636474	-0.248556	0.028969	-0.726370	-0.193017	0.040874	-0.641945	-0.153096	0.028528	-0.654040	
129	0.6450	-0.269673	1.623411	-0.485402	-0.254850	1.589726	-0.726256	-0.190785	1.585238	-0.282653	-0.128538	1.548774	-0.511117	-0.141998	1.087670	-0.391407	-0.160687	1.095696	-0.630120	-0.209286	1.142086	-0.337842	-0.236769	1.159382	-0.666581	-0.327040	1.125208	-0.438145	-0.333297	1.133502	-0.546165	-0.338756	1.123460	-0.493516	-0.213211	0.862747	-0.301567	-0.198364	0.805617	-0.290888	-0.134738	0.819168	-0.299003	-0.143391	0.878879	-0.311368	-0.167851	0.516756	-0.311697	-0.158766	0.504018	-0.413928	-0.251546	0.397205	-0.261845	-0.272567	0.359443	-0.263786	-0.203931	0.375578	-0.284775	-0.219389	0.338389	-0.284712	-0.402033	0.077763	-0.319938	-0.226053	0.025917	-0.246898	-0.185161	0.041876	-0.343560	-0.149131	0.029572	-0.340761	-0.234963	0.841759	-0.704574	-0.217951	0.783887	-0.713599	-0.154727	0.797535	-0.719964	-0.163549	0.856635	-0.712959	-0.177687	0.520766	-0.684841	-0.147832	0.512536	-0.593227	-0.308422	0.376815	-0.704450	-0.323007	0.339355	-0.698709	-0.263074	0.321671	-0.706356	-0.256068	0.365022	-0.711490	-0.413309	0.074024	-0.637075	-0.248377	0.028962	-0.726405	-0.192965	0.040882	-0.642043	-0.153124	0.028528	-0.654016	
130	0.6500	-0.269878	1.625651	-0.485301	-0.254564	1.592346	-0.726129	-0.190910	1.587671	-0.282507	-0.128649	1.551189	-0.510890	-0.141678	1.090215	-0.391258	-0.160072	1.098843	-0.629935	-0.208818	1.144798	-0.337830	-0.236002	1.162783	-0.666480	-0.326689	1.127457	-0.438061	-0.332888	1.135740	-0.546228	-0.338429	1.125768	-0.493479	-0.212885	0.864840	-0.301781	-0.198500	0.807806	-0.290732	-0.134794	0.821228	-0.298942	-0.143322	0.880940	-0.311346	-0.168615	0.519014	-0.311460	-0.159194	0.506208	-0.413659	-0.252115	0.399283	-0.261698	-0.273076	0.361501	-0.263645	-0.204414	0.377737	-0.284477	-0.219815	0.340506	-0.284426	-0.401457	0.079676	-0.319662	-0.225955	0.025994	-0.246998	-0.185050	0.041848	-0.343540	-0.149135	0.029576	-0.340788	-0.234771	0.844241	-0.704849	-0.217831	0.786355	-0.713937	-0.154544	0.799905	-0.719956	-0.163292	0.858986	-0.712851	-0.179521	0.522913	-0.685136	-0.149303	0.514418	-0.593600	-0.309522	0.378590	-0.704641	-0.323976	0.341096	-0.698935	-0.264018	0.323597	-0.706774	-0.257157	0.366989	-0.711872	-0.412989	0.075687	-0.637767	-0.248193	0.028954	-0.726449	-0.192942	0.040896	-0.642160	-0.153199	0.028529	-0.654000	
131	0.6550	-0.270108	1.628181	-0.485226	-0.254255	1.595245	-0.725995	-0.191069	1.590397	-0.282376	-0.128787	1.553820	-0.510672	-0.141275	1.093062	-0.391122	-0.159366	1.102328	-0.629698	-0.208236	1.147830	-0.337839	-0.235138	1.166359	-0.666351	-0.326266	1.129977	-0.437978	-0.332418	1.138232	-0.546296	-0.338040	1.128345	-0.493453	-0.212743	0.867209	-0.301891	-0.198774	0.810263	-0.290568	-0.134972	0.823505	-0.298804	-0.143322	0.883215	-0.311253	-0.169854	0.521474	-0.311125	-0.160227	0.508585	-0.413271	-0.252932	0.401555	-0.261508	-0.273803	0.363731	-0.263481	-0.205107	0.380129	-0.284089	-0.220415	0.342849	-0.284049	-0.400849	0.081748	-0.319363	-0.225857	0.026079	-0.247097	-0.184949	0.041822	-0.343502	-0.149169	0.029576	-0.340802	-0.234794	0.846996	-0.705050	-0.217999	0.789079	-0.714209	-0.154658	0.802469	-0.720049	-0.163257	0.861540	-0.712854	-0.181587	0.525447	-0.685618	-0.151166	0.516435	-0.594007	-0.310834	0.380544	-0.704817	-0.325139	0.343013	-0.699138	-0.265150	0.325718	-0.707217	-0.258460	0.369162	-0.712271	-0.412634	0.077498	-0.638534	-0.247998	0.028950	-0.726497	-0.192940	0.040915	-0.642301	-0.153311	0.028531	-0.653991	
132	0.6600	-0.270344	1.630945	-0.485175	-0.253930	1.598392	-0.725855	-0.191257	1.593390	-0.282261	-0.128958	1.556689	-0.510459	-0.140798	1.096193	-0.391009	-0.158591	1.106070	-0.629412	-0.207556	1.151145	-0.337877	-0.234195	1.170069	-0.666207	-0.325780	1.132745	-0.437897	-0.331895	1.140967	-0.546385	-0.337603	1.131165	-0.493438	-0.212743	0.869851	-0.302002	-0.199180	0.812951	-0.290400	-0.135275	0.825971	-0.298598	-0.143391	0.885690	-0.311092	-0.171354	0.524091	-0.310730	-0.161150	0.511166	-0.412956	-0.253957	0.403998	-0.261280	-0.274708	0.366114	-0.263293	-0.205976	0.382733	-0.283620	-0.221164	0.345396	-0.283589	-0.400227	0.083986	-0.319046	-0.225759	0.026178	-0.247188	-0.184852	0.041797	-0.343443	-0.149228	0.029575	-0.340805	-0.235034	0.849989	-0.705168	-0.218462	0.792017	-0.714401	-0.155070	0.805188	-0.720235	-0.163444	0.864263	-0.712960	-0.184087	0.528070	-0.685951	-0.153240	0.518462	-0.594334	-0.312301	0.382661	-0.704955	-0.326441	0.345088	-0.699321	-0.266418	0.328030	-0.707677	-0.259922	0.371520	-0.712677	-0.412241	0.079473	-0.639356	-0.247787	0.028953	-0.726548	-0.192954	0.040937	-0.642471	-0.153451	0.028535	-0.653989	
133	0.6650	-0.270585	1.633918	-0.485143	-0.253594	1.601758	-0.725708	-0.191473	1.596620	-0.282162	-0.129170	1.559757	-0.510255	-0.140260	1.099574	-0.390919	-0.157768	1.110009	-0.629094	-0.206827	1.154711	-0.337897	-0.233203	1.173898	-0.666056	-0.325247	1.135747	-0.437817	-0.331330	1.143923	-0.546495	-0.337127	1.134211	-0.493437	-0.212874	0.872733	-0.302063	-0.199704	0.815841	-0.290238	-0.135696	0.828602	-0.298335	-0.143534	0.888344	-0.310868	-0.173251	0.527162	-0.310078	-0.162574	0.513955	-0.412556	-0.255147	0.406579	-0.261025	-0.275750	0.368632	-0.263089	-0.206988	0.385531	-0.283082	-0.222020	0.348119	-0.283073	-0.399563	0.086346	-0.318712	-0.225648	0.026294	-0.247274	-0.184757	0.041776	-0.343364	-0.149308	0.029573	-0.340798	-0.235474	0.853181	-0.705208	-0.219201	0.795135	-0.714511	-0.155761	0.808018	-0.720489	-0.163842	0.867120	-0.713157	-0.186823	0.530893	-0.686309	-0.155517	0.520763	-0.594674	-0.313870	0.384924	-0.705060	-0.327836	0.347302	-0.699485	-0.267775	0.330523	-0.708137	-0.261495	0.374062	-0.713079	-0.411805	0.081614	-0.640225	-0.247554	0.028971	-0.726595	-0.192976	0.040963	-0.642671	-0.153614	0.028543	-0.653994	
134	0.6700	-0.270835	1.637066	-0.485127	-0.253289	1.605312	-0.725565	-0.191715	1.600057	-0.282081	-0.129433	1.563004	-0.510065	-0.139673	1.103168	-0.390859	-0.156918	1.114084	-0.628745	-0.206077	1.158496	-0.337888	-0.232176	1.177829	-0.665902	-0.324677	1.138952	-0.437742	-0.330737	1.147082	-0.546610	-0.336623	1.137453	-0.493448	-0.213133	0.875809	-0.302086	-0.200331	0.818911	-0.290091	-0.136227	0.831369	-0.298031	-0.143749	0.891140	-0.310587	-0.175203	0.530216	-0.309573	-0.164049	0.516847	-0.412175	-0.256465	0.409296	-0.260747	-0.276885	0.371267	-0.262879	-0.208099	0.388482	-0.282512	-0.222948	0.350992	-0.282521	-0.398804	0.088855	-0.318350	-0.225517	0.026433	-0.247367	-0.184664	0.041755	-0.343254	-0.149405	0.029575	-0.340778	-0.236091	0.856532	-0.705176	-0.220177	0.798394	-0.714548	-0.156695	0.810936	-0.720792	-0.164419	0.870080	-0.713423	-0.189633	0.533913	-0.686621	-0.157937	0.523476	-0.594788	-0.315510	0.387335	-0.705146	-0.329284	0.349654	-0.699629	-0.269178	0.333174	-0.708588	-0.263133	0.376762	-0.713471	-0.411311	0.083909	-0.641137	-0.247293	0.029009	-0.726628	-0.193005	0.040990	-0.642903	-0.153794	0.028552	-0.654011	
